<?xml version="1.0" standalone="no"?>
<!DOCTYPE svg PUBLIC "-//W3C//DTD SVG 20010904//EN"
 "http://www.w3.org/TR/2001/REC-SVG-20010904/DTD/svg10.dtd">
<svg version="1.0" xmlns="http://www.w3.org/2000/svg"
 width="1476.000000pt" height="1476.000000pt" viewBox="0 0 1476.000000 1476.000000"
 preserveAspectRatio="xMidYMid meet">
<metadata>
Created by potrace 1.11, written by Peter Selinger 2001-2013
</metadata>
<g transform="translate(0.000000,1476.000000) scale(0.100000,-0.100000)"
fill="#000000" stroke="none">
<path d="M6330 14738 c-107 -22 -218 -57 -295 -93 -29 -14 -57 -25 -63 -25 -6
0 -12 -3 -14 -7 -1 -5 -32 -23 -68 -42 -261 -136 -614 -442 -950 -821 -346
-391 -799 -1019 -1165 -1615 -54 -88 -108 -176 -121 -195 -12 -19 -61 -102
-109 -185 -97 -166 -96 -163 -184 -322 -47 -84 -72 -118 -102 -137 -21 -14
-41 -26 -44 -26 -3 0 -39 -22 -79 -49 -41 -27 -78 -50 -82 -52 -54 -24 -713
-469 -929 -628 -626 -462 -1020 -800 -1378 -1182 -161 -171 -252 -283 -381
-467 -37 -54 -126 -200 -126 -208 0 -2 -10 -21 -23 -42 -59 -94 -134 -310
-161 -457 -18 -101 -14 -347 7 -462 66 -347 239 -724 541 -1173 49 -74 93
-137 96 -140 4 -3 21 -27 39 -53 67 -99 360 -465 482 -602 203 -229 303 -337
464 -503 137 -142 386 -389 475 -472 172 -161 254 -236 265 -242 14 -8 21 -31
31 -94 3 -21 14 -79 25 -129 18 -80 27 -124 45 -215 3 -14 16 -70 29 -125 20
-87 33 -143 41 -180 1 -5 21 -86 44 -180 23 -93 43 -177 45 -185 6 -28 57
-215 97 -360 238 -862 514 -1591 775 -2048 30 -53 64 -112 74 -130 44 -76 164
-248 238 -339 253 -316 523 -481 876 -537 101 -16 446 -20 560 -5 110 13 148
19 171 23 12 2 37 7 55 10 19 3 59 10 89 17 30 6 74 15 97 20 23 4 71 16 105
25 35 9 70 18 78 19 61 15 218 61 340 101 80 26 150 49 155 50 6 1 93 33 195
72 377 142 663 266 1070 464 102 50 203 99 225 110 107 51 554 291 677 363 9
6 41 23 70 39 29 16 65 37 79 47 14 10 28 17 30 15 2 -3 40 -9 84 -15 44 -6
91 -13 105 -15 14 -3 45 -7 70 -10 25 -3 54 -8 65 -10 11 -2 47 -7 80 -11 32
-4 66 -8 75 -10 8 -1 42 -6 75 -9 33 -4 74 -9 90 -11 78 -10 125 -15 180 -20
33 -3 74 -8 90 -10 28 -4 69 -8 198 -20 28 -2 77 -7 107 -10 30 -3 84 -7 120
-9 36 -3 108 -8 160 -12 52 -3 113 -8 135 -9 325 -25 1052 -25 1350 0 160 13
317 31 367 40 11 3 39 6 62 9 142 17 388 76 556 133 496 168 775 434 935 893
33 95 77 255 88 320 3 14 12 63 21 110 20 111 44 318 53 467 14 225 7 854 -12
1033 -2 19 -6 80 -10 135 -4 55 -9 108 -10 117 -2 9 -6 52 -9 95 -4 43 -8 87
-10 98 -2 11 -7 54 -11 95 -4 41 -9 82 -10 90 -2 8 -6 42 -9 75 -4 33 -9 71
-11 85 -2 14 -9 63 -15 110 -6 47 -13 96 -15 110 -3 14 -7 48 -10 75 -3 28 -8
57 -10 65 -2 8 -7 35 -10 60 -3 25 -17 110 -31 190 -14 80 -26 154 -28 165 -2
11 -11 61 -21 110 -9 50 -18 101 -20 115 -2 14 -8 45 -14 70 -5 25 -12 59 -15
75 -13 71 -48 240 -51 245 -2 4 7 29 21 56 162 311 337 669 431 879 24 55 53
117 64 138 10 20 16 37 13 37 -4 0 -2 6 4 13 10 12 179 411 221 522 13 33 27
69 32 80 36 83 187 517 231 665 27 93 105 379 112 415 10 47 16 74 20 93 2 9
11 51 20 92 14 71 19 95 31 173 3 17 7 43 10 57 2 14 7 50 10 80 3 30 9 73 12
95 14 96 9 439 -8 550 -25 164 -27 173 -60 269 -80 236 -205 413 -429 607
-172 148 -450 318 -720 438 -124 55 -133 59 -190 81 -30 11 -64 25 -75 30
-129 63 -788 266 -1054 325 -9 2 -92 22 -186 44 -141 33 -354 79 -440 95 -11
2 -47 9 -80 15 -33 6 -71 13 -85 16 -14 3 -50 9 -80 15 -30 5 -66 11 -80 14
-14 3 -70 12 -125 20 -55 9 -111 18 -125 20 -14 3 -61 10 -105 16 -44 6 -93
14 -110 16 -36 6 -63 10 -135 18 -84 10 -114 17 -125 31 -8 10 -120 109 -380
334 -16 14 -73 61 -125 105 -52 43 -107 88 -121 101 -14 12 -85 70 -158 129
-73 59 -138 111 -144 116 -92 75 -384 297 -562 427 -637 463 -1215 800 -1675
976 -180 69 -358 120 -495 142 -125 20 -165 23 -280 23 -89 0 -160 -7 -225
-20z m455 -672 c235 -56 570 -198 870 -368 44 -25 96 -54 115 -65 349 -197
1037 -683 1505 -1065 172 -141 606 -507 625 -528 3 -3 39 -34 79 -70 41 -36
87 -76 101 -90 94 -89 142 -130 153 -131 7 0 19 -2 27 -3 8 -2 47 -7 85 -11
114 -11 164 -18 280 -35 33 -5 80 -12 105 -15 62 -9 78 -11 225 -35 169 -28
152 -25 290 -50 66 -12 131 -24 145 -26 14 -3 32 -7 40 -9 8 -2 29 -7 47 -10
17 -3 82 -16 145 -29 62 -14 124 -27 138 -30 21 -3 289 -68 340 -81 8 -3 35
-9 60 -15 25 -6 108 -29 185 -51 831 -239 1398 -532 1593 -823 44 -66 81 -159
98 -246 20 -109 8 -493 -20 -620 -3 -14 -8 -42 -11 -62 -4 -30 -28 -149 -50
-247 -52 -230 -248 -842 -325 -1016 -5 -11 -38 -92 -74 -180 -62 -155 -138
-334 -197 -463 -16 -34 -29 -64 -29 -66 0 -10 -94 -206 -241 -501 -151 -306
-199 -398 -282 -546 -20 -36 -37 -74 -37 -85 0 -10 9 -55 20 -99 11 -44 23
-93 26 -110 3 -16 14 -70 24 -120 11 -49 22 -106 25 -125 3 -19 10 -51 15 -70
5 -19 11 -53 15 -75 3 -22 8 -47 10 -55 3 -8 7 -29 9 -45 3 -17 9 -57 15 -90
6 -33 14 -76 17 -95 10 -66 13 -80 18 -98 2 -9 7 -37 10 -62 3 -25 8 -54 10
-65 2 -11 7 -42 10 -68 4 -27 9 -56 11 -65 1 -10 6 -39 9 -67 4 -27 11 -75 16
-105 5 -30 12 -80 15 -110 3 -30 8 -66 10 -80 2 -14 6 -50 10 -80 4 -30 8 -66
10 -80 10 -66 33 -288 40 -385 3 -38 7 -92 10 -120 20 -197 32 -765 20 -940
-20 -286 -27 -349 -61 -525 -48 -241 -127 -433 -217 -528 -97 -102 -291 -198
-514 -256 -79 -21 -247 -55 -298 -62 -22 -2 -51 -7 -65 -9 -66 -11 -204 -26
-265 -30 -27 -2 -97 -7 -155 -12 -203 -16 -1056 -7 -1220 12 -19 3 -75 7 -125
10 -49 3 -108 8 -130 9 -180 15 -222 19 -237 21 -9 2 -53 6 -98 10 -45 4 -89
8 -98 10 -10 1 -46 6 -82 10 -36 3 -76 8 -90 10 -14 2 -54 7 -90 10 -36 4 -72
8 -80 10 -9 2 -43 6 -75 10 -33 4 -67 9 -76 10 -9 2 -40 6 -69 10 -29 4 -60 8
-69 10 -16 3 -78 12 -136 21 -16 3 -55 9 -85 14 -221 37 -206 37 -275 -7 -33
-22 -67 -42 -75 -46 -8 -4 -24 -13 -35 -20 -349 -212 -1106 -599 -1550 -792
-16 -7 -50 -22 -75 -33 -169 -75 -584 -234 -735 -282 -470 -147 -760 -204
-1035 -204 -312 0 -451 68 -653 321 -55 69 -137 186 -150 213 -4 8 -23 40 -42
70 -86 138 -385 778 -385 823 0 5 -7 23 -15 40 -48 103 -221 629 -315 957 -67
233 -221 832 -236 914 -3 17 -12 58 -21 91 -8 33 -17 71 -20 85 -2 13 -11 56
-20 95 -18 84 -32 151 -39 185 -3 14 -16 79 -29 145 -25 127 -31 155 -40 220
-6 42 -7 43 -140 160 -316 278 -810 770 -1094 1090 -24 28 -57 64 -73 82 -68
76 -226 266 -299 359 -30 38 -56 71 -59 74 -42 38 -358 502 -422 620 -20 36
-47 85 -61 110 -70 126 -178 405 -192 497 -3 21 -8 50 -10 63 -7 34 -7 168 0
205 76 389 597 983 1440 1641 445 347 1007 732 1556 1064 82 50 94 61 123 115
80 148 117 217 171 310 32 55 66 114 75 130 35 62 153 261 175 295 37 58 269
429 280 448 63 108 561 813 595 842 3 3 30 37 60 75 30 39 57 72 60 75 3 3 25
30 50 60 84 103 62 77 185 216 258 290 555 543 765 650 140 71 198 85 340 80
69 -2 157 -11 195 -20z"/>
</g>
</svg>
